<?xml version="1.0" encoding="utf-8"?>
<!-- Generator: Adobe Illustrator 27.5.0, SVG Export Plug-In . SVG Version: 6.00 Build 0)  -->
<svg version="1.1" id="Layer_1" xmlns="http://www.w3.org/2000/svg" xmlns:xlink="http://www.w3.org/1999/xlink" x="0px" y="0px"
	 viewBox="0 0 190.14 95.33" style="enable-background:new 0 0 190.14 95.33;" xml:space="preserve">
<defs>
	<filter id="Adobe_OpacityMaskFilter" filterUnits="userSpaceOnUse" x="0" y="0" width="190.14" height="95.33">
		
			<feColorMatrix  type="matrix" values="-1 0 0 0 1  0 -1 0 0 1  0 0 -1 0 1  0 0 0 1 0" color-interpolation-filters="sRGB" result="source"/>
		<feFlood  style="flood-color:white;flood-opacity:1" result="back"/>
		<feBlend  in="source" in2="back" mode="normal"/>
	</filter>
</defs>
<mask maskUnits="userSpaceOnUse" x="0" y="0" width="190.14" height="95.33" id="баблы_00000028317392352706033450000008333422647210326684_">
	<g style="filter:url(#Adobe_OpacityMaskFilter);">
		<linearGradient id="SVGID_1_" gradientUnits="userSpaceOnUse" x1="-0.178" y1="67.4633" x2="217.1556" y2="67.4633">
			<stop  offset="0" style="stop-color:#FFFFFF;stop-opacity:0"/>
			<stop  offset="0.0401" style="stop-color:#DEDFE0;stop-opacity:0.0401"/>
			<stop  offset="0.0994" style="stop-color:#B8BABC;stop-opacity:0.0994"/>
			<stop  offset="0.1642" style="stop-color:#97999C;stop-opacity:0.1642"/>
			<stop  offset="0.2333" style="stop-color:#7C7E81;stop-opacity:0.2333"/>
			<stop  offset="0.3078" style="stop-color:#656669;stop-opacity:0.3078"/>
			<stop  offset="0.3894" style="stop-color:#505153;stop-opacity:0.3894"/>
			<stop  offset="0.481" style="stop-color:#3D3D3F;stop-opacity:0.481"/>
			<stop  offset="0.5883" style="stop-color:#222122;stop-opacity:0.5883"/>
			<stop  offset="0.7259" style="stop-color:#090909;stop-opacity:0.7259"/>
			<stop  offset="1" style="stop-color:#000000"/>
		</linearGradient>
		<rect x="-0.18" y="-18.56" style="fill:url(#SVGID_1_);stroke:#808285;stroke-miterlimit:10;" width="217.33" height="172.05"/>
	</g>
</mask>
<g id="баблы_00000041254731413658715470000010024205224447816608_" style="opacity:0.6;mask:url(#_00000028317392352706033450000008333422647210326684_);">
	<g id="бабл2_00000004510326470625129680000015199721466946762912_">
		<path style="fill:#634305;" d="M190.14,17.69v9.53c0,0.83-0.07,1.64-0.21,2.43c-1.14,6.51-6.77,11.47-13.54,11.47h-17.78
			c0.6,4.8,2.78,9.1,5.99,12.36c-9.34-1.32-16.64-6.2-18.44-12.36H80.48c-7.59,0-13.75-6.22-13.75-13.89v-9.53
			c0-7.67,6.16-13.89,13.75-13.89h95.91C183.98,3.8,190.14,10.02,190.14,17.69z"/>
		<path style="fill:#FFD682;" d="M186.57,13.89v9.53c0,0.83-0.07,1.64-0.21,2.43c-1.14,6.51-6.77,11.47-13.54,11.47h-17.78
			c0.6,4.8,2.78,9.1,5.99,12.36c-9.34-1.32-16.64-6.2-18.44-12.36H76.91c-7.59,0-13.75-6.22-13.75-13.89v-9.53
			C63.15,6.22,69.31,0,76.91,0h95.91C180.41,0,186.57,6.22,186.57,13.89z"/>
	</g>
	<g id="бабл2_00000093141441274223913550000004789185823094196628_">
		<path style="fill:#634305;" d="M126.98,59.56v9.53c0,0.83-0.07,1.64-0.21,2.43c-1.14,6.51-6.77,11.47-13.54,11.47H95.45
			c0.6,4.8,2.78,9.1,5.99,12.36c-9.34-1.32-16.64-6.2-18.44-12.36H17.32c-7.59,0-13.75-6.22-13.75-13.89v-9.53
			c0-7.67,6.16-13.89,13.75-13.89h95.91C120.83,45.67,126.98,51.89,126.98,59.56z"/>
		<path style="fill:#FFD682;" d="M123.41,55.76v9.53c0,0.83-0.07,1.64-0.21,2.43c-1.14,6.51-6.77,11.47-13.54,11.47H91.88
			c0.6,4.8,2.78,9.1,5.99,12.36c-9.34-1.32-16.64-6.2-18.44-12.36H13.75C6.16,79.18,0,72.96,0,65.29v-9.53
			c0-7.67,6.16-13.89,13.75-13.89h95.91C117.26,41.87,123.41,48.09,123.41,55.76z"/>
	</g>
</g>
</svg>
