<?xml version="1.0" encoding="utf-8"?>
<!-- Generator: Adobe Illustrator 27.5.0, SVG Export Plug-In . SVG Version: 6.00 Build 0)  -->
<svg version="1.1" id="Layer_1" xmlns="http://www.w3.org/2000/svg" xmlns:xlink="http://www.w3.org/1999/xlink" x="0px" y="0px"
	 viewBox="0 0 154.15 72.73" style="enable-background:new 0 0 154.15 72.73;" xml:space="preserve">
<defs>
	<filter id="Adobe_OpacityMaskFilter" filterUnits="userSpaceOnUse" x="0" y="0" width="154.15" height="72.73">
		
			<feColorMatrix  type="matrix" values="-1 0 0 0 1  0 -1 0 0 1  0 0 -1 0 1  0 0 0 1 0" color-interpolation-filters="sRGB" result="source"/>
	</filter>
</defs>
<mask maskUnits="userSpaceOnUse" x="0" y="0" width="154.15" height="72.73" id="баблы_00000117677109838996456790000000722287632816568734_">
	<g style="filter:url(#Adobe_OpacityMaskFilter);">
		<linearGradient id="SVGID_1_" gradientUnits="userSpaceOnUse" x1="-63.1402" y1="25.8141" x2="154.1935" y2="25.8141">
			<stop  offset="0" style="stop-color:#FFFFFF;stop-opacity:0"/>
			<stop  offset="0.0401" style="stop-color:#DEDFE0;stop-opacity:0.0401"/>
			<stop  offset="0.0994" style="stop-color:#B8BABC;stop-opacity:0.0994"/>
			<stop  offset="0.1642" style="stop-color:#97999C;stop-opacity:0.1642"/>
			<stop  offset="0.2333" style="stop-color:#7C7E81;stop-opacity:0.2333"/>
			<stop  offset="0.3078" style="stop-color:#656669;stop-opacity:0.3078"/>
			<stop  offset="0.3894" style="stop-color:#505153;stop-opacity:0.3894"/>
			<stop  offset="0.481" style="stop-color:#3D3D3F;stop-opacity:0.481"/>
			<stop  offset="0.5883" style="stop-color:#222122;stop-opacity:0.5883"/>
			<stop  offset="0.7259" style="stop-color:#090909;stop-opacity:0.7259"/>
			<stop  offset="1" style="stop-color:#000000"/>
		</linearGradient>
		<rect x="-63.14" y="-60.21" style="fill:url(#SVGID_1_);stroke:#808285;stroke-miterlimit:10;" width="217.33" height="172.05"/>
	</g>
</mask>
<g id="баблы_00000041254731413658715470000010024205224447816608_" style="mask:url(#_00000117677109838996456790000000722287632816568734_);">
	<g id="бабл2_00000004510326470625129680000015199721466946762912_">
		<g>
			<path style="fill:#BCBEC0;" d="M154.15,24.4v12.87c0,1.12-0.09,2.22-0.25,3.28c-1.38,8.8-8.19,15.49-16.39,15.49H116
				c0.73,6.48,3.37,12.29,7.25,16.69c-11.3-1.79-20.14-8.38-22.31-16.69H21.46c-9.19,0-16.64-8.4-16.64-18.77V24.4
				c0-10.36,7.45-18.77,16.64-18.77h116.05C146.7,5.63,154.15,14.03,154.15,24.4z"/>
		</g>
		<g>
			<path style="fill:#FFFFFF;" d="M149.83,19.27v12.87c0,1.12-0.09,2.22-0.25,3.28c-1.38,8.8-8.19,15.49-16.39,15.49h-21.52
				c0.73,6.48,3.37,12.29,7.25,16.69c-11.3-1.79-20.14-8.38-22.31-16.69H17.14c-9.19,0-16.64-8.4-16.64-18.77V19.27
				C0.5,8.9,7.95,0.5,17.14,0.5h116.05C142.38,0.5,149.83,8.9,149.83,19.27z"/>
			<path style="fill:#BCBEC0;" d="M120.22,68.31l-1.37-0.22c-11.4-1.8-20.23-8.33-22.61-16.69h-79.1C7.69,51.41,0,42.76,0,32.14
				V19.27C0,8.64,7.69,0,17.14,0h116.05c9.45,0,17.14,8.64,17.14,19.27v12.87c0,1.13-0.09,2.26-0.26,3.35
				c-1.44,9.22-8.54,15.91-16.88,15.91h-20.95c0.78,5.95,3.27,11.56,7.06,15.86L120.22,68.31z M17.14,1C8.24,1,1,9.19,1,19.27v12.87
				c0,10.07,7.24,18.27,16.14,18.27h79.87l0.1,0.37c2.04,7.82,10.04,14.04,20.56,16.09c-3.54-4.44-5.83-10.03-6.48-15.91l-0.06-0.56
				h22.08c7.84,0,14.53-6.34,15.89-15.07c0.16-1.05,0.25-2.12,0.25-3.2V19.27C149.33,9.19,142.09,1,133.19,1H17.14z"/>
		</g>
	</g>
</g>
</svg>
