<svg width="13" height="8" viewBox="0 0 13 8" fill="none" xmlns="http://www.w3.org/2000/svg">
<path d="M6.84839 7.9599C6.56783 7.9599 6.33518 7.85726 6.11621 7.63829L0.963637 2.36939C0.785726 2.19148 0.703613 1.97936 0.703613 1.72617C0.703613 1.21297 1.10733 0.795563 1.62054 0.795563C1.87372 0.795563 2.10637 0.905046 2.29113 1.0898L6.84154 5.77023L11.4056 1.0898C11.5904 0.905046 11.8162 0.795563 12.0762 0.795563C12.5894 0.795563 13 1.21297 13 1.72617C13 1.97936 12.911 2.19148 12.7331 2.36939L7.58056 7.63829C7.36159 7.8641 7.12894 7.9599 6.84839 7.9599Z" fill="current"/>
</svg>
