<?xml version="1.0" encoding="UTF-8"?>
<svg id="Layer_2" data-name="Layer 2" xmlns="http://www.w3.org/2000/svg" viewBox="0 0 265.05 396.38">
  <g id="stars">
    <path d="m22.78,71.61c-.39-.09-.6.45-.25.65,1.77,1.02,3.61,2.4,5.76,6.09,5.56,9.55,3.67,15.21,2.29,20.48-.08.32.32.55.54.3,2.28-2.56,6.65-6.68,13.41-9.18,6.88-2.54,13.01-2.22,16.56-1.68.49.07.76-.53.39-.86-2.29-2.03-5.38-5.42-7.43-10.38-2.74-6.66-2.3-13.13-1.42-17.44.11-.56-.65-.82-.92-.32-1.62,2.98-3.44,5.44-7.87,8.24-9.81,6.21-15.9,5.25-21.07,4.11Z" style="fill: #8ec9ef;"/>
    <path d="m100.66,20.26c-.46-.1-.7.52-.29.75,2.05,1.18,4.19,2.78,6.69,7.07,6.46,11.09,4.26,17.65,2.65,23.77-.1.38.37.64.63.34,2.64-2.98,7.71-7.75,15.57-10.65,7.99-2.95,15.1-2.57,19.22-1.95.57.08.88-.62.45-1-2.66-2.36-6.24-6.29-8.62-12.05-3.19-7.73-2.67-15.24-1.65-20.25.13-.65-.75-.95-1.06-.37-1.87,3.46-3.99,6.31-9.13,9.56-11.38,7.2-18.46,6.09-24.45,4.77Z" style="fill: #8ec9ef;"/>
    <path d="m176.11,14.64c-.46-.1-.7.52-.29.75,2.05,1.18,4.19,2.78,6.69,7.07,6.46,11.09,4.26,17.65,2.65,23.77-.1.38.37.64.63.34,2.64-2.98,7.71-7.75,15.57-10.65,7.99-2.95,15.1-2.57,19.22-1.95.57.08.88-.62.45-1-2.66-2.36-6.24-6.29-8.62-12.05-3.19-7.73-2.67-15.24-1.65-20.25.13-.65-.75-.95-1.06-.37-1.87,3.46-3.99,6.31-9.13,9.56-11.38,7.2-18.46,6.09-24.45,4.77Z" style="fill: #c9abff;"/>
    <path d="m216.64,80.74c-.46-.1-.7.52-.29.75,2.05,1.18,4.19,2.78,6.69,7.07,6.46,11.09,4.26,17.65,2.65,23.77-.1.38.37.64.63.34,2.64-2.98,7.71-7.75,15.57-10.65,7.99-2.95,15.1-2.57,19.22-1.95.57.08.88-.62.45-1-2.66-2.36-6.24-6.29-8.62-12.05-3.19-7.73-2.67-15.24-1.65-20.25.13-.65-.75-.95-1.06-.37-1.87,3.46-3.99,6.31-9.13,9.56-11.38,7.2-18.46,6.09-24.45,4.77Z" style="fill: #8ec9ef;"/>
    <path d="m226.17,175.32c-.39-.09-.6.45-.25.65,1.77,1.02,3.61,2.4,5.76,6.09,5.56,9.55,3.67,15.21,2.29,20.48-.08.32.32.55.54.3,2.28-2.56,6.65-6.68,13.41-9.18,6.88-2.54,13.01-2.22,16.56-1.68.49.07.76-.53.39-.86-2.29-2.03-5.38-5.42-7.43-10.38-2.74-6.66-2.3-13.13-1.42-17.44.11-.56-.65-.82-.92-.32-1.62,2.98-3.44,5.44-7.87,8.24-9.81,6.21-15.9,5.25-21.07,4.11Z" style="fill: #c9abff;"/>
  </g>
  <g id="_букет" data-name="букет">
    <path d="m203.3,237.92l-43.98,35.25-36.53,29.29-35.34,28.32-31.56,25.3-49.08,39.34c-2.77,2.28-6.93.23-6.81-3.35l2.8-64.99,1.75-40.57,1.91-44.32,1.9-44.04,2.51-58.27c0-.14.01-.21.01-.21.6-.29,1.37-.52,2.28-.69,14.91-2.72,69.72,10.94,109.91,31.97,36.39,19.03,78.09,58.67,80.19,66.16.09.34.11.61.04.81Z" style="fill: #c4b2d7;"/>
    <path d="m203.26,237.11c-16.36,1.83-48.52-1.36-103.99-30.13C13.5,162.5,10.88,142.11,10.87,139.88c0-.14.01-.21.01-.21l2.28-.69c14.91-2.72,69.72,10.94,109.91,31.97,36.39,19.03,78.09,58.67,80.19,66.16Z" style="fill: #f1c3d9;"/>
    <path d="m159.32,273.17l-36.53,29.29c-13.7-3.18-36.87-10.59-67.89-27.76-20.37-11.27-36.24-22.48-48.44-32.51l1.9-44.04c5.63,6.35,21.27,21.55,58.37,44.74,28.93,18.08,66.19,26.45,92.59,30.28Z" style="fill: #fde167;"/>
    <path d="m87.45,330.78l-31.56,25.3c-8.7-3.81-18.38-8.54-28.98-14.4-8.87-4.91-16.89-9.81-24.11-14.6l1.75-40.57c8.61,6.55,19.78,14.36,34.19,23.36,14.9,9.31,32.01,16.05,48.71,20.91Z" style="fill: #fde167;"/>
  </g>
  <g id="_брызги" data-name="брызги">
    <circle cx="68.57" cy="111.96" r="5.99" style="fill: #c9abff;"/>
    <circle cx="124.1" cy="86.99" r="5.99" style="fill: #c9abff;"/>
    <circle cx="183.17" cy="117.95" r="5.99" style="fill: #8ec9ef;"/>
    <circle cx="196.78" cy="177.01" r="5.99" style="fill: #8ec9ef;"/>
    <path d="m99.14,125.71c-.12,0-.24,0-.37-.01-2.48-.2-4.32-2.37-4.12-4.85,1.7-21.1-1.13-47.92-24.29-55.9-2.35-.81-3.6-3.37-2.79-5.72.81-2.35,3.37-3.6,5.72-2.79,22.33,7.69,33.1,30.82,30.34,65.13-.19,2.35-2.16,4.14-4.48,4.14Z" style="fill: #c9abff;"/>
    <path d="m173.5,165.79c-1.04,0-2.09-.36-2.94-1.09-1.88-1.62-2.09-4.47-.47-6.35,13.63-15.79,28.36-20.19,38.31-21.1,11.67-1.07,23.51,1.98,32.47,8.38,2.02,1.44,2.49,4.25,1.05,6.28-1.44,2.02-4.25,2.49-6.28,1.05-22.25-15.87-47.32-1.95-58.74,11.28-.89,1.03-2.15,1.56-3.41,1.56Z" style="fill: #c9abff;"/>
    <path d="m138.07,147.98c-.7,0-1.41-.16-2.07-.51-2.21-1.15-3.06-3.86-1.92-6.07l36.88-70.95c1.15-2.21,3.87-3.06,6.07-1.92,2.21,1.15,3.06,3.86,1.92,6.07l-36.88,70.95c-.8,1.54-2.37,2.43-4,2.43Z" style="fill: #8ec9ef;"/>
  </g>
</svg>
