<svg width="21" height="20" fill="none" xmlns="http://www.w3.org/2000/svg"><path d="M7.484 18.773v-3.057c0-.78.67-1.414 1.499-1.414h3.025c.398 0 .779.15 1.06.414.28.265.439.625.439 1v3.057c-.003.325.132.637.374.867.243.23.573.36.917.36h2.064a3.744 3.744 0 0 0 2.572-1 3.327 3.327 0 0 0 1.066-2.422V7.867c0-.735-.345-1.431-.942-1.902L12.536.675a3.393 3.393 0 0 0-4.157.072L1.518 5.965C.892 6.422.518 7.12.5 7.867v8.702C.5 18.464 2.129 20 4.138 20h2.017c.715 0 1.296-.544 1.3-1.218l.029-.009Z" fill="current"/></svg>
