<svg width="20" height="20" viewBox="0 0 20 20" fill="none" xmlns="http://www.w3.org/2000/svg">
<path d="M11.4471 18.2068C12.5248 18.0167 13.5545 17.6163 14.4775 17.0283C15.4005 16.4403 16.1986 15.6763 16.8263 14.7798C17.454 13.8834 17.8989 12.8721 18.1358 11.8037C18.3727 10.7353 18.3968 9.63068 18.2067 8.55295C18.0167 7.47523 17.6162 6.44549 17.0283 5.52252C16.4403 4.59956 15.6762 3.80145 14.7798 3.17375C13.8834 2.54606 12.8721 2.10108 11.8037 1.86422C10.7352 1.62736 9.63065 1.60326 8.55292 1.79329C7.4752 1.98332 6.44546 2.38377 5.5225 2.97176C4.59953 3.55975 3.80142 4.32378 3.17373 5.22022C2.54603 6.11666 2.10105 7.12795 1.86419 8.19636C1.62733 9.26477 1.60323 10.3694 1.79326 11.4471C1.98329 12.5248 2.38374 13.5546 2.97173 14.4775C3.55973 15.4005 4.32375 16.1986 5.22019 16.8263C6.11663 17.454 7.12792 17.899 8.19633 18.1358C9.26474 18.3727 10.3693 18.3968 11.4471 18.2068L11.4471 18.2068Z" stroke="#72777A" stroke-width="2"/>
<path d="M10 10L10 15" stroke="#72777A" stroke-width="2" stroke-linecap="square"/>
<path d="M10 5.83331L10 4.99998" stroke="#72777A" stroke-width="2" stroke-linecap="square"/>
</svg>
