  <svg width="19" height="20" fill="none" xmlns="http://www.w3.org/2000/svg">
    <path
      d="m10.36 10.36 3.978-.277c.787-.042 1.212-.17 1.68-.404.894.085 2.447.915 2.447 1.383 0 .468-.107.723-1.064.723-.723-.085-2.191-.085-3.787-.085-.978 0-1.425.021-2.786.085.127.638.191 1.361.191 2.149 0 .914-.149 2.255-.34 3.042-.213.893-.66 1.553-1.255 1.978-.234.17-.426.276-.638.276-.234 0-.532-.127-.745-.34-.51-.468-1.234-1.361-1.638-1.914-.106-.15-.213-.32-.213-.447 0-.107.043-.17.213-.17.766.17 1.468.297 2.234.383.212-.468.489-1.745.489-3.021 0-.723-.021-1.298-.064-1.787-2.276.234-5.233.574-7.764 1.042-.213 0-.362-.042-.575-.298C.32 12.232 0 11.764 0 11.595c0-.085.043-.107.383-.15 2.914-.382 5.807-.701 8.36-.935-.191-.49-.404-.83-.766-1.17-.234-.256-.361-.404-.361-.553 0-.107.085-.192.255-.192.404 0 .872.15 1.276.404.787-.787 1.234-1.361 1.66-2.084-1.66.234-2.915.468-5.106.914-.17 0-.404-.149-.574-.34-.447-.49-.66-.787-.66-.957 0-.128.043-.15.383-.192 2.213-.234 3.936-.425 5.914-.68.49-.064.766-.15 1.064-.405.297.022.765.256 1.255.596.34.234.617.596.617.872 0 .234-.213.426-.639.66-1.233.914-2.297 1.616-3.233 2.148.234.234.404.553.532.83Zm-.298-7.786v.383c1.532-.128 3.02-.234 4.51-.298.468-.021.872-.085 1.191-.276.766.361 1.213.68 1.83 1.34.319.361.574.702.574 1.063 0 .277-.277.532-1.043.787-.744.256-1.382.447-2.425.724-.276 0-.361-.107-.361-.213 0-.085.042-.191.127-.298.32-.468.83-1.191 1-1.66-4.467.15-8.275.49-12.785 1.043-.127 1.49-.702 2.787-1.531 2.787-.66 0-1.021-.808-1.021-1.276 0-.383.085-.617.34-.979a4.653 4.653 0 0 0 .85-2.553c0-.255.065-.489.214-.489.276 0 .765.51.978 1.021 1.893-.17 3.765-.404 5.637-.574v-.66c0-.872-.085-1.382-.276-1.787C7.786.49 7.722.298 7.722.17c0-.085.17-.17.32-.17.53 0 1.446.234 2.041.532.32.17.447.34.447.532 0 .127-.085.319-.17.446-.213.277-.298.639-.298 1.064Z"
      fill="current"
    />
  </svg>
