<svg width="22" height="21" fill="none" xmlns="http://www.w3.org/2000/svg"><path d="M19.5 16V3s-1-2-4.5-2-4.5 3-4.5 3-1-3-4.5-3-4.5 2-4.5 2v13s1-2 4.5-2 4.5 2 4.5 2 1-2 4.5-2 4.5 2 4.5 2Z" fill="current"/><path d="M19.5 3h1a.999.999 0 0 0-.106-.447L19.5 3Zm0 13-.894.447A1 1 0 0 0 20.5 16h-1ZM1.5 3l-.894-.447A1 1 0 0 0 .5 3h1Zm0 13h-1a1 1 0 0 0 1.894.447L1.5 16Zm9 0-.894.447a1 1 0 0 0 1.788 0L10.5 16Zm0-12-.949.316a1 1 0 0 0 1.898 0L10.5 4Zm8-1v13h2V3h-2ZM.5 3v13h2V3h-2Zm19 13 .894-.448v-.002l-.002-.003-.003-.006a.765.765 0 0 0-.028-.051 3.515 3.515 0 0 0-.288-.423 4.695 4.695 0 0 0-.922-.876C18.287 13.563 16.955 13 15 13v2c1.545 0 2.463.437 2.974.809.262.19.432.374.531.5.05.062.081.11.097.135l.013.021-.002-.004a.122.122 0 0 1-.003-.005l-.002-.004-.001-.002v-.002L19.5 16ZM15 13c-1.955 0-3.287.563-4.15 1.191-.426.31-.725.626-.923.876a3.508 3.508 0 0 0-.308.46.872.872 0 0 0-.013.025L10.5 16l.894.448v.002l-.002.002-.002.004a.122.122 0 0 1-.003.005l-.002.004.013-.02c.016-.027.047-.074.097-.137.099-.125.269-.309.53-.5.512-.371 1.43-.808 2.975-.808v-2Zm-4.5 3 .894-.448v-.002l-.002-.003-.003-.006a.765.765 0 0 0-.028-.051 3.515 3.515 0 0 0-.288-.423 4.695 4.695 0 0 0-.922-.876C9.287 13.563 7.955 13 6 13v2c1.545 0 2.463.437 2.974.809.262.19.432.374.531.5.05.062.081.11.097.135l.013.021-.002-.004a.188.188 0 0 1-.003-.005l-.002-.004-.001-.002v-.002L10.5 16ZM6 13c-1.955 0-3.287.563-4.15 1.191-.426.31-.725.626-.923.876a3.51 3.51 0 0 0-.308.46.892.892 0 0 0-.013.025L1.5 16l.894.448v.002l-.002.002-.002.004a.188.188 0 0 1-.005.009l.013-.02c.016-.027.047-.074.097-.137.099-.125.269-.309.53-.5C3.538 15.438 4.456 15 6 15v-2ZM19.5 3l.894-.448V2.55l-.002-.002-.003-.007a1.141 1.141 0 0 0-.028-.051 3.528 3.528 0 0 0-.288-.423 4.697 4.697 0 0 0-.922-.876C18.287.563 16.955 0 15 0v2c1.545 0 2.463.437 2.974.809a2.7 2.7 0 0 1 .531.5c.05.062.081.11.097.135l.013.021-.002-.004a.229.229 0 0 1-.003-.005l-.002-.004-.001-.002v-.002L19.5 3ZM15 0c-2.077 0-3.457.905-4.3 1.824a5.977 5.977 0 0 0-1.073 1.662 3.697 3.697 0 0 0-.072.188l-.002.005-.001.003c0 .001 0 .002.948.318.949.316.948.317.948.317v.003l-.001.002v.002l.002-.009.024-.06a3.976 3.976 0 0 1 .702-1.08C12.706 2.596 13.577 2 15 2V0Zm-4.5 4c.949-.316.948-.317.948-.317v-.004l-.003-.005a.925.925 0 0 0-.02-.057 5.175 5.175 0 0 0-.252-.553 5.975 5.975 0 0 0-.873-1.24C9.457.904 8.077 0 6 0v2c1.423 0 2.293.595 2.825 1.176a3.977 3.977 0 0 1 .702 1.08l.024.06.003.008v-.002l-.002-.002v-.002c0-.001 0-.002.948-.318ZM6 0C4.045 0 2.713.563 1.85 1.191c-.426.31-.725.626-.923.876a3.522 3.522 0 0 0-.308.46 1.446 1.446 0 0 0-.01.02l-.002.003v.002L1.5 3l.894.448v.002l-.002.002a.95.95 0 0 1-.005.01l-.002.003.013-.02c.016-.027.047-.074.097-.137.099-.125.269-.309.53-.5C3.538 2.438 4.456 2 6 2V0Z" fill="current"/></svg>
