<svg width="19" height="20" viewBox="0 0 19 20" fill="none" xmlns="http://www.w3.org/2000/svg">
<path d="M10.1801 2.28509H16.8535C18.1286 2.28509 18.7025 2.85092 18.7025 4.11317V6.3765C18.7025 6.81175 18.3624 7.02938 17.8523 7.02938C17.3635 7.02938 17.0022 6.81175 17.0022 6.39826V4.43961C17.0022 3.93906 16.7685 3.80849 16.3434 3.80849H2.67785C2.23154 3.80849 1.99776 3.93906 1.99776 4.43961V6.39826C1.99776 6.81175 1.63647 7.02938 1.14765 7.02938C0.658837 7.02938 0.297539 6.81175 0.297539 6.3765V4.11317C0.297539 2.85092 0.871365 2.28509 2.16779 2.28509H8.52237V0.718172C8.52237 0.261153 8.81991 0 9.35123 0C9.9038 0 10.1801 0.261153 10.1801 0.718172V2.28509ZM10.2864 13.1882V17.9978C10.2864 19.4124 9.43624 20 7.75727 20C6.90716 20 5.92953 19.9129 5.22819 19.7606C4.88814 19.6953 4.67561 19.3906 4.67561 18.9989C4.67561 18.9119 4.69687 18.803 4.71812 18.716C4.80313 18.2807 5.07942 18.0631 5.41946 18.0631C5.48322 18.0631 5.54698 18.0631 5.61074 18.0849C6.33333 18.259 7.07718 18.3025 7.62975 18.3025C8.43736 18.3025 8.67114 18.1502 8.67114 17.4102V13.1882H0.595078C0.212528 13.1882 0 12.84 0 12.4048C0 11.9478 0.191275 11.6213 0.573825 11.6213H8.67114V10.272C8.67114 9.8803 8.96868 9.64091 9.45749 9.64091C9.58501 9.64091 9.71253 9.66268 9.81879 9.68444C11.1577 9.16213 12.3479 8.48749 13.2405 7.79108C13.3255 7.72579 13.368 7.6605 13.368 7.59521C13.368 7.52992 13.3042 7.4864 13.1767 7.4864H3.59172C3.20917 7.4864 2.97539 7.15996 2.97539 6.70294C2.97539 6.26768 3.20917 5.963 3.59172 5.963H14.4944C15.302 5.963 15.7058 6.46355 15.7058 7.02938C15.7058 7.35582 15.557 7.70403 15.2595 7.98694C13.9418 9.14037 12.1566 10.1632 10.2864 10.9249V11.6213H18.3837C18.7662 11.6213 19 11.9478 19 12.383C19 12.84 18.7875 13.1882 18.4049 13.1882H10.2864Z" fill="#3E3E3E"/>
</svg>
