<svg width="15" height="15" fill="none" xmlns="http://www.w3.org/2000/svg"><path d="M12.215 4.812a4.206 4.206 0 0 0-.656-1.162 3.868 3.868 0 0 0-.967-.884 4.366 4.366 0 0 0-1.287-.563A6.043 6.043 0 0 0 7.73 2.01c-.97 0-1.845.212-2.624.635-.78.423-1.397 1.043-1.851 1.86-.449.813-.673 1.81-.673 2.988 0 1.183.227 2.184.681 3.001a4.578 4.578 0 0 0 1.868 1.861c.79.423 1.69.634 2.7.634.937 0 1.753-.161 2.448-.484.702-.323 1.243-.78 1.624-1.37.387-.593.58-1.292.58-2.095l.674.107h-4.93V7.329H15V8.99c0 1.226-.309 2.29-.925 3.194-.612.898-1.459 1.592-2.541 2.082-1.077.49-2.31.734-3.702.734-1.559 0-2.927-.304-4.105-.912A6.683 6.683 0 0 1 .984 11.5C.328 10.377 0 9.046 0 7.506c0-1.164.19-2.21.572-3.137A6.657 6.657 0 0 1 2.18 2.01 7.105 7.105 0 0 1 4.627.52C5.569.173 6.598 0 7.715 0c.93 0 1.797.116 2.6.35a7.476 7.476 0 0 1 2.153.99 6.016 6.016 0 0 1 1.573 1.526c.415.585.695 1.233.841 1.946h-2.667Z" fill="current"/></svg>
