<svg width="21" height="20" viewBox="0 0 21 20" fill="none" xmlns="http://www.w3.org/2000/svg">
<path fill-rule="evenodd" clip-rule="evenodd" d="M12.4838 0.541611C12.5711 0.710929 12.5928 0.927766 12.6361 1.36144C12.7182 2.1823 12.7593 2.59274 12.9311 2.81793C13.149 3.10358 13.5034 3.25038 13.8595 3.20248C14.1402 3.16472 14.4594 2.90352 15.0979 2.38113C15.4352 2.10515 15.6038 1.96716 15.7853 1.90918C16.0158 1.83555 16.2652 1.84798 16.4872 1.94419C16.662 2.01994 16.8161 2.17402 17.1243 2.4822L18.0178 3.37567C18.3259 3.68385 18.48 3.83794 18.5558 4.01275C18.652 4.23478 18.6644 4.48415 18.5908 4.71464C18.5328 4.89612 18.3948 5.06478 18.1188 5.4021C17.5964 6.0406 17.3352 6.35984 17.2975 6.64056C17.2496 6.99662 17.3964 7.35102 17.682 7.56893C17.9072 7.74072 18.3176 7.78176 19.1385 7.86385C19.5722 7.90722 19.7891 7.92891 19.9584 8.01624C20.1734 8.12716 20.341 8.31228 20.4299 8.53729C20.5 8.71447 20.5 8.93239 20.5 9.36824V10.6319C20.5 11.0676 20.5 11.2855 20.43 11.4626C20.341 11.6877 20.1734 11.8729 19.9583 11.9838C19.789 12.0711 19.5722 12.0928 19.1386 12.1361L19.1386 12.1361C18.318 12.2182 17.9077 12.2592 17.6825 12.4309C17.3967 12.6489 17.2499 13.0034 17.2979 13.3596C17.3357 13.6402 17.5968 13.9593 18.119 14.5976C18.3949 14.9348 18.5328 15.1034 18.5908 15.2848C18.6645 15.5154 18.652 15.7648 18.5558 15.9869C18.48 16.1617 18.326 16.3157 18.0179 16.6238L17.1243 17.5174C16.8162 17.8255 16.6621 17.9796 16.4873 18.0554C16.2652 18.1516 16.0159 18.164 15.7854 18.0904C15.6039 18.0324 15.4352 17.8944 15.0979 17.6184L15.0979 17.6184C14.4594 17.096 14.1402 16.8348 13.8595 16.7971C13.5034 16.7492 13.149 16.896 12.9311 17.1816C12.7593 17.4068 12.7183 17.8173 12.6362 18.6383C12.5928 19.0722 12.5711 19.2891 12.4837 19.4585C12.3728 19.6735 12.1877 19.8409 11.9628 19.9299C11.7856 20 11.5676 20 11.1316 20H9.86824C9.43239 20 9.21447 20 9.03729 19.9299C8.81228 19.841 8.62716 19.6734 8.51624 19.4584C8.42891 19.2891 8.40722 19.0722 8.36385 18.6385C8.28176 17.8176 8.24072 17.4072 8.06892 17.182C7.85101 16.8964 7.49663 16.7496 7.14057 16.7975C6.85985 16.8352 6.54059 17.0964 5.90208 17.6189L5.90206 17.6189C5.56473 17.8949 5.39607 18.0329 5.21458 18.0908C4.9841 18.1645 4.73474 18.152 4.51272 18.0558C4.3379 17.9801 4.1838 17.826 3.87561 17.5178L2.98217 16.6243C2.67398 16.3162 2.51988 16.1621 2.44414 15.9873C2.34794 15.7652 2.3355 15.5159 2.40913 15.2854C2.46711 15.1039 2.60511 14.9352 2.8811 14.5979C3.40351 13.9594 3.66471 13.6402 3.70247 13.3594C3.75037 13.0034 3.60357 12.649 3.31792 12.4311C3.09273 12.2593 2.6823 12.2182 1.86143 12.1361C1.42776 12.0928 1.21093 12.0711 1.04161 11.9838C0.826558 11.8728 0.659016 11.6877 0.570047 11.4627C0.5 11.2855 0.5 11.0676 0.5 10.6318V9.36835C0.5 8.9324 0.5 8.71442 0.570084 8.53721C0.65905 8.31226 0.826541 8.12719 1.04152 8.01628C1.21088 7.92891 1.42777 7.90722 1.86155 7.86384H1.86155H1.86156C2.68264 7.78173 3.09319 7.74068 3.31842 7.56881C3.60395 7.35092 3.7507 6.99664 3.70287 6.64066C3.66514 6.35987 3.40385 6.04052 2.88128 5.40182C2.60516 5.06435 2.46711 4.89561 2.40914 4.71405C2.33557 4.48364 2.348 4.23438 2.44413 4.01243C2.51988 3.83754 2.67403 3.68339 2.98233 3.37509L3.87565 2.48177L3.87566 2.48177C4.18385 2.17357 4.33795 2.01947 4.51277 1.94373C4.73478 1.84753 4.98414 1.8351 5.21463 1.90872C5.39612 1.9667 5.56481 2.10472 5.9022 2.38076C6.54061 2.9031 6.85982 3.16427 7.14044 3.20207C7.49661 3.25003 7.85113 3.10319 8.06907 2.81742C8.24077 2.59227 8.28181 2.18195 8.36387 1.36131C8.40722 0.927757 8.4289 0.710983 8.51619 0.541704C8.62712 0.326575 8.81231 0.158981 9.03741 0.0700092C9.21453 0 9.43238 0 9.8681 0H11.1318C11.5676 0 11.7855 0 11.9627 0.0700478C12.1877 0.159016 12.3728 0.326558 12.4838 0.541611ZM10.5 14C12.7091 14 14.5 12.2091 14.5 10C14.5 7.79086 12.7091 6 10.5 6C8.29086 6 6.5 7.79086 6.5 10C6.5 12.2091 8.29086 14 10.5 14Z" fill="current"/>
</svg>
