<?xml version="1.0" encoding="utf-8"?>
<!-- Generator: Adobe Illustrator 27.5.0, SVG Export Plug-In . SVG Version: 6.00 Build 0)  -->
<svg version="1.1" id="Layer_1" xmlns="http://www.w3.org/2000/svg" xmlns:xlink="http://www.w3.org/1999/xlink" x="0px" y="0px"
	 viewBox="0 0 79.76 97.9" style="enable-background:new 0 0 79.76 97.9;" xml:space="preserve">
<g id="cards2">
	<g id="card_00000101085331217945793640000013734764510093385120_">
		<path style="fill:#715FA2;" d="M74.61,97.9l-51.21,0c-2.85,0-5.15-2.31-5.15-5.15l0-70.58c0-2.85,2.31-5.15,5.15-5.15l51.21,0
			c2.85,0,5.15,2.31,5.15,5.15l0,70.58C79.76,95.59,77.45,97.9,74.61,97.9z"/>
		<path style="fill:#FFFFFF;" d="M71.67,94.96l-51.21,0c-2.85,0-5.15-2.31-5.15-5.15l0-70.58c0-2.85,2.31-5.15,5.15-5.15l51.21,0
			c2.85,0,5.15,2.31,5.15,5.15l0,70.58C76.82,92.65,74.52,94.96,71.67,94.96z"/>
	</g>
	<g id="card_00000035512342818124731360000012902494848664408968_">
		<path style="fill:#715FA2;" d="M67.13,90.95l-51.21,0c-2.85,0-5.15-2.31-5.15-5.15l0-70.58c0-2.85,2.31-5.15,5.15-5.15l51.21,0
			c2.85,0,5.15,2.31,5.15,5.15l0,70.58C72.28,88.64,69.98,90.95,67.13,90.95z"/>
		<path style="fill:#FFFFFF;" d="M64.19,88.01l-51.21,0c-2.85,0-5.15-2.31-5.15-5.15l0-70.58c0-2.85,2.31-5.15,5.15-5.15l51.21,0
			c2.85,0,5.15,2.31,5.15,5.15l0,70.58C69.34,85.7,67.04,88.01,64.19,88.01z"/>
	</g>
	<g id="card_00000158013290280266863940000005238688842862786728_">
		<path style="fill:#715FA2;" d="M59.3,83.83l-51.21,0c-2.85,0-5.15-2.31-5.15-5.15l0-70.58c0-2.85,2.31-5.15,5.15-5.15l51.21,0
			c2.85,0,5.15,2.31,5.15,5.15l0,70.58C64.45,81.52,62.14,83.83,59.3,83.83z"/>
		<path style="fill:#FFFFFF;" d="M56.36,80.89l-51.21,0C2.31,80.89,0,78.58,0,75.74L0,5.15C0,2.31,2.31,0,5.15,0l51.21,0
			c2.85,0,5.15,2.31,5.15,5.15l0,70.58C61.51,78.58,59.2,80.89,56.36,80.89z"/>
	</g>
</g>
</svg>
